HIERARCHY
ROOT Hips
{
  OFFSET -69.4423 88.0299 51.6846
  CHANNELS 6 Xposition Yposition Zposition Zrotation Xrotation Yrotation
  JOINT Spine
  {
    OFFSET 12.0259 -0.162853 1.93176e-005
    CHANNELS 3 Zrotation Xrotation Yrotation
    JOINT Spine1
    {
      OFFSET 15.3169 -0.0121909 0
      CHANNELS 3 Zrotation Xrotation Yrotation
      JOINT Spine2
      {
        OFFSET 15.3176 -0.0121922 0
        CHANNELS 3 Zrotation Xrotation Yrotation
        JOINT Neck
        {
          OFFSET 19.9142 1.56236 0
          CHANNELS 3 Zrotation Xrotation Yrotation
          JOINT Head
          {
            OFFSET 6.92646 0 0
            CHANNELS 3 Zrotation Xrotation Yrotation
            End Site
            {
              OFFSET 20.7666 0 0
            }
          }
          JOINT LeftShoulder
          {
            OFFSET -4.94072 -1.14703 8.14416
            CHANNELS 3 Zrotation Xrotation Yrotation
            JOINT LeftArm
            {
              OFFSET 14.108 0 -2.74767e-005
              CHANNELS 3 Zrotation Xrotation Yrotation
              JOINT LeftForeArm
              {
                OFFSET 28.5802 -0.0783412 -0.0284884
                CHANNELS 3 Zrotation Xrotation Yrotation
                JOINT LeftHand
                {
                  OFFSET 27.092 0 0
                  CHANNELS 3 Zrotation Xrotation Yrotation
                  End Site
                  {
                    OFFSET 9.55928 -0.186424 0.145352
                  }
                }
              }
            }
          }
          JOINT RightShoulder
          {
            OFFSET -7.15748 -1.33027 -6.24935
            CHANNELS 3 Zrotation Xrotation Yrotation
            JOINT RightArm
            {
              OFFSET 14.108 0 1.82997e-005
              CHANNELS 3 Zrotation Xrotation Yrotation
              JOINT RightForeArm
              {
                OFFSET 28.5802 -0.0707221 2.30684e-005
                CHANNELS 3 Zrotation Xrotation Yrotation
                JOINT RightHand
                {
                  OFFSET 27.092 0 -1.30073e-005
                  CHANNELS 3 Zrotation Xrotation Yrotation
                  End Site
                  {
                    OFFSET 9.55929 -0.186417 -0.145354
                  }
                }
              }
            }
          }
        }
      }
    }
  }
  JOINT LeftUpLeg
  {
    OFFSET 0.00499725 -0.534999 8.837
    CHANNELS 3 Zrotation Xrotation Yrotation
    JOINT LeftLeg
    {
      OFFSET 39.9035 -0.00124594 0.000252775
      CHANNELS 3 Zrotation Xrotation Yrotation
      JOINT LeftFoot
      {
        OFFSET 39.6689 0 0
        CHANNELS 3 Zrotation Xrotation Yrotation
        JOINT LeftToe
        {
          OFFSET 10.1624 13.6296 0
          CHANNELS 3 Zrotation Xrotation Yrotation
          End Site
          {
            OFFSET 8.38147 0 0
          }
        }
      }
    }
  }
  JOINT RightUpLeg
  {
    OFFSET 0.00499725 -0.535 -8.837
    CHANNELS 3 Zrotation Xrotation Yrotation
    JOINT RightLeg
    {
      OFFSET 39.9036 -0.000268477 0.000106433
      CHANNELS 3 Zrotation Xrotation Yrotation
      JOINT RightFoot
      {
        OFFSET 39.6689 1.17892e-005 0
        CHANNELS 3 Zrotation Xrotation Yrotation
        JOINT RightToe
        {
          OFFSET 10.1624 13.6296 0
          CHANNELS 3 Zrotation Xrotation Yrotation
          End Site
          {
            OFFSET 8.38147 0 0
          }
        }
      }
    }
  }
}
MOTION
Frames:	20
Frame Time:	0.0333333
-60.9435 88.4358 82.6733 -93.8357 15.1241 176.084 1.15988 2.71668 0.952139 2.2782 5.45213 1.85228 2.2782 5.45217 1.85227 -15.7235 -2.20081 -12.0128 43.1112 -0.908432 12.0901 -166.732 -4.51998 -94.3849 -1.73301 8.01225 78.0589 -19.0728 1.58798 -11.9137 9.19045 -79.6561 11.9596 -166.553 -6.69054 73.3406 -7.29769 0.276156 -72.7296 -23.3837 -2.51164 14.0102 15.6783 88.0195 -15.5721 -31.613 -0.517546 -172.507 -14.375 0.16033 -2.26997 -8.69667 -5.79924 -2.03882 90 -2.38542e-015 -3.18055e-015 14.4803 -5.91616 -174.909 -5.04771 -0.805971 0.921471 -0.697032 12.4444 1.94043 90 -1.74931e-014 -0 
-58.7956 88.2799 82.9925 -94.5235 14.5873 176.107 1.05379 2.99717 0.915541 2.06366 6.01083 1.77948 2.06367 6.01081 1.77947 -15.8475 -2.33604 -11.8912 42.8846 -1.15009 12.2422 -166.636 -4.74272 -94.173 0.107955 8.73641 77.6791 -17.7316 1.41185 -11.1035 7.15327 -76.798 9.94252 -166.442 -6.77655 73.5491 -7.3465 1.44697 -72.5259 -24.8856 -2.84659 14.8681 110.505 89.3947 -110.432 -31.8979 0.0932436 -172.755 -14.9635 0.200908 -2.26671 -8.67117 -3.83282 -1.28106 90 -3.97569e-016 1.59028e-015 15.6484 -5.1637 -174.95 -4.09424 -0.793132 0.962839 -1.47156 13.0919 2.38189 90 9.54166e-015 6.36111e-015 
-56.1865 88.1599 83.0728 -94.9531 14.3154 176.455 0.925022 3.22851 0.851781 1.8061 6.47051 1.65526 1.80612 6.4705 1.65525 -15.8156 -2.35668 -11.8588 42.7488 -1.28767 12.1078 -166.694 -4.86129 -94.0996 2.26406 9.64792 77.7007 -16.4787 1.26593 -10.3673 5.66274 -74.2945 8.43853 -166.485 -6.71782 73.6346 -7.38615 2.06749 -72.6473 -26.4678 -3.21181 15.7461 158.567 88.4456 -158.496 -31.0577 -0.0401196 -173.555 -15.487 0.241621 -2.26993 -8.19117 -3.42422 -1.05655 90 3.18055e-015 3.18055e-015 17.9471 -4.22209 -175.603 -1.4235 -0.738233 1.04429 -4.17969 13.7692 3.47075 90 1.27222e-014 -3.18055e-015 
-53.2676 88.1793 83.0636 -95.532 14.5548 176.951 0.764736 3.63167 0.674975 1.49091 7.27235 1.30532 1.49091 7.27234 1.30531 -16.2044 -2.68206 -11.2214 43.1604 -2.02872 12.0111 -166.311 -5.15913 -93.3262 4.94326 9.79804 77.4075 -15.253 1.13185 -9.65635 4.40398 -71.7066 7.16703 -166.107 -6.85586 74.4194 -7.07827 2.50612 -73.4671 -28.112 -3.61846 16.649 166.183 87.6625 -166.126 -29.7169 2.10186 -174.261 -15.6812 0.269082 -2.28236 -9.29741 -2.80464 -0.960177 90 -1.59028e-015 1.59028e-015 17.4392 -3.00301 -176.657 -4.18291 -0.708008 0.951809 -4.50417 14.8534 3.63668 90 -6.36111e-015 3.18055e-015 
-49.9881 88.6668 82.701 -95.9021 14.0195 178.471 0.620114 3.62193 0.392435 1.21898 7.248 0.747919 1.21898 7.24803 0.747908 -16.2062 -2.6034 -11.1272 43.4123 -1.92528 11.7779 -166.368 -5.1826 -93.2754 5.43844 11.6078 78.0835 -14.9876 1.11497 -9.5003 3.992 -72.3167 6.80949 -166.102 -6.67638 74.5786 -8.09759 2.18123 -74.2508 -29.5963 -4.00435 17.4577 164.791 87.9761 -164.712 -28.2669 4.17104 -176.122 -14.7878 0.216653 -2.3163 -12.4573 -3.98173 -1.82832 90 1.59028e-015 7.95139e-016 17.904 -2.91451 -178.806 -5.32246 -0.636276 0.850367 -7.72028 14.8156 4.54393 90 4.77083e-015 -0 
-46.5704 88.9307 82.3147 -95.9641 12.2219 179.426 0.588214 3.39111 0.255126 1.16436 6.78512 0.476706 1.16436 6.78514 0.476698 -16.3043 -2.53043 -11.173 43.2743 -1.97837 11.5245 -166.251 -5.1836 -93.2706 6.11489 11.7064 78.9956 -14.0254 1.02732 -9.01454 3.85421 -70.8952 6.64395 -166.017 -6.57087 74.5744 -8.87678 1.62148 -75.0669 -31.1732 -4.43398 18.2918 158.43 88.5856 -158.338 -26.1366 6.26511 -177.876 -14.1604 0.271757 -2.32608 -13.8808 -1.7439 -0.987817 90 7.95139e-016 3.97569e-015 16.1573 -5.06568 179.607 -11.3779 -0.600944 0.555954 -10.1486 13.1945 4.78809 90 -1.74931e-014 3.18055e-015 
-43.1221 89.1202 82.0851 -95.8108 10.287 178.719 0.510386 3.1649 0.444293 0.998442 6.33445 0.8624 0.998435 6.33445 0.862396 -16.2292 -2.6294 -11.3552 43.2661 -2.00952 11.824 -166.33 -5.33182 -93.3716 5.44165 11.3191 80.073 -13.1162 0.94348 -8.59438 3.64695 -69.8768 6.4379 -166.157 -6.68045 74.432 -9.32904 0.580122 -75.9524 -32.3424 -4.757 18.8804 138.251 89.2396 -138.14 -24.923 8.0094 -177.798 -15.2673 0.421545 -2.28744 -13.5629 3.13622 1.21697 90 3.97569e-016 -0 13.6317 -6.07778 179.459 -18.4388 -0.433878 0.225018 -15.8395 11.7149 5.96136 90 -1.59028e-015 6.36111e-015 
-39.7316 89.4188 81.7472 -95.5012 8.69311 179.385 0.511736 2.92244 0.359213 1.00709 5.84837 0.693759 1.00708 5.84837 0.693739 -16.2549 -2.70191 -11.567 43.4391 -1.84718 12.2749 -166.373 -5.43798 -93.5716 1.34628 11.6974 82.0082 -13.8203 1.02 -9.10421 3.80522 -73.2073 6.73339 -166.174 -6.83058 74.2626 -10.3721 -0.363455 -76.4711 -32.4824 -4.79015 18.9451 138.21 89.2928 -138.083 -22.2208 9.56069 -179.386 -15.0039 0.536231 -2.27289 -12.9186 6.20637 2.52579 90 -3.97569e-016 -0 9.04212 -6.53734 177.693 -27.4539 -0.116123 -0.120733 -23.3894 9.39648 6.93078 90 -3.18055e-015 -3.18055e-015 
-36.4447 89.6593 81.2673 -94.6158 6.05398 -178.919 0.671563 2.44306 0.0685709 1.34204 4.88721 0.108763 1.34204 4.88724 0.10875 -16.326 -2.72515 -11.5181 43.5753 -1.84336 12.2578 -166.319 -5.30498 -93.5475 -4.03964 11.7083 83.9747 -15.1962 1.15925 -9.98642 4.96286 -77.5111 7.89873 -166.103 -6.84907 74.3296 -11.1189 -1.04549 -77.063 -32.2257 -4.71905 18.8319 67.8023 89.5247 -67.6787 -17.496 9.28876 177.253 -12.3202 0.633152 -2.22037 -13.1652 7.40767 2.90248 90 7.95139e-016 -7.95139e-016 4.23643 -7.29558 174.956 -37.9642 0.22387 -0.372597 -27.9852 7.73473 6.98781 90 0 6.36111e-015 
-33.4073 89.8051 80.861 -93.9491 3.09692 -177.777 0.780094 1.93019 -0.116065 1.56541 3.85864 -0.25846 1.56542 3.85864 -0.258475 -16.0202 -2.80222 -11.5511 43.0841 -2.04044 12.1806 -166.594 -5.04793 -93.6128 -10.3903 10.8912 85.3107 -16.7393 1.31353 -10.9479 6.92113 -81.4866 9.89892 -166.422 -6.83285 74.2999 -11.4257 -1.56759 -77.9045 -31.6675 -4.5562 18.5531 16.3057 88.5997 -16.179 -12.549 9.19349 174.45 -8.44198 0.812867 -2.12752 -13.3474 9.1527 3.4015 90 7.95139e-016 7.95139e-016 -0.918978 -7.81189 172.931 -48.0879 0.342769 -0.247527 -25.6507 6.5149 5.50428 90 -1.59028e-015 -6.36111e-015 
-30.4823 90.0232 80.5941 -93.6626 0.627447 -177.753 0.796441 1.55893 -0.0593277 1.59596 3.11736 -0.140294 1.59596 3.11735 -0.140307 -15.8763 -2.90647 -11.8602 43.2001 -2.06425 12.4881 -166.755 -5.03566 -93.9369 -15.1706 9.15017 85.8447 -18.3074 1.49363 -11.9158 8.60576 -82.6153 11.5435 -166.623 -7.10543 73.9933 -10.6136 -1.81969 -78.6124 -30.5529 -4.2553 17.9779 8.4071 87.2739 -8.23882 -9.22794 8.02147 173.677 -6.09813 0.86934 -2.11043 -13.4097 9.90451 3.58841 90 1.59028e-015 -0 -6.40721 -7.82788 172.162 -56.0768 0.324225 -0.1074 -21.1607 5.82416 4.09892 90 -1.11319e-014 4.77083e-015 
-27.6213 90.0773 80.325 -93.5842 -1.09081 -177.145 0.792998 1.23745 -0.0955695 1.5863 2.4739 -0.208155 1.5863 2.47393 -0.208174 -15.9431 -2.82004 -12.4241 43.4058 -1.90008 12.6076 -166.755 -5.06795 -94.6084 -18.2846 7.19864 86.7782 -20.663 1.82937 -13.3341 12.2278 -83.4272 15.1533 -166.613 -7.37482 73.4365 -9.96501 -2.28057 -79.3366 -29.6178 -4.02585 17.5113 9.08339 87.1459 -8.93275 -7.09566 7.45377 172.602 -5.81838 0.828697 -2.08898 -13.1362 10.7862 3.78511 90 0 1.59028e-015 -12.1122 -7.35873 170.876 -61.8189 0.248505 -0.188081 -17.1469 5.41559 3.16251 90 -1.74931e-014 -0 
-24.7782 90.0718 80.136 -93.2404 -2.9309 -176.73 0.813474 0.883682 -0.145924 1.62949 1.76572 -0.304291 1.6295 1.76572 -0.304292 -16.0095 -2.73981 -12.4465 43.6673 -1.85169 12.4051 -166.666 -4.87965 -94.7757 -21.1569 5.45075 86.4816 -23.0607 2.19236 -14.7337 12.7111 -83.5796 15.5402 -166.564 -7.44929 73.4214 -9.5494 -3.06407 -80.4257 -28.8001 -3.81607 17.0846 9.79614 87.3228 -9.64955 -5.48093 6.88489 171.864 -6.98257 0.851795 -2.01639 -11.6839 11.3848 3.67637 90 -7.95139e-016 -3.97569e-015 -17.2273 -6.52878 170.224 -65.2365 0.169746 -0.220141 -12.6972 5.56831 2.47217 90 -1.27222e-014 1.59028e-015 
-21.9115 89.7037 80.0669 -92.6963 -3.69965 -176.146 0.884402 0.737228 -0.232059 1.77201 1.47126 -0.475386 1.77201 1.4713 -0.475397 -15.8865 -2.70365 -12.5984 43.5168 -1.78204 12.4296 -166.751 -4.70326 -95.1047 -25.0146 4.29631 85.4284 -25.7263 2.61542 -16.2176 21.0866 -86.3245 23.8795 -166.715 -7.51561 73.2795 -9.15465 -3.81039 -81.3278 -27.8288 -3.56947 16.5671 7.87448 86.6975 -7.72506 -4.14862 6.73352 171.217 -9.37157 0.924338 -1.88278 -7.92459 11.8912 3.2285 90 -3.18055e-015 3.18055e-015 -21.9669 -4.51279 169.978 -66.6575 0.0638769 -0.134222 -8.20503 3.60312 1.07795 90 -1.98785e-015 1.59028e-015 
-18.9783 89.2581 79.9654 -92.0482 -4.16344 -175.521 0.999633 0.592661 -0.353855 2.00309 1.17951 -0.717904 2.00308 1.17948 -0.71791 -15.8578 -2.68473 -12.5066 43.2377 -1.77783 12.3914 -166.752 -4.56489 -95.2046 -26.5908 3.31741 85.1563 -28.8156 3.18434 -17.9118 19.4879 -86.787 22.3237 -166.726 -7.51301 73.3919 -8.50114 -4.1563 -82.3059 -26.6235 -3.27859 15.9264 6.06046 85.7158 -5.88189 -2.70189 6.30542 170.627 -11.8914 0.984087 -1.73102 -4.52991 11.9511 2.70568 90 1.59028e-015 -7.95139e-016 -25.801 -2.54295 169.975 -65.3418 0.0175672 -0.0354141 -4.5381 3.57934 0.576625 90 1.44119e-015 1.59028e-015 
-16.0925 88.8208 79.9582 -91.7869 -4.73346 -175.067 1.04881 0.400149 -0.460349 2.10089 0.792263 -0.927814 2.10088 0.792281 -0.927828 -15.9411 -2.65478 -12.337 43.04 -1.7899 12.3088 -166.607 -4.39358 -95.1671 -28.587 2.28498 83.9746 -30.9489 3.63438 -19.0752 42.9184 -88.035 45.6205 -166.626 -7.50226 73.5622 -7.77046 -4.39415 -83.2083 -25.3001 -2.97106 15.2137 4.50338 84.2614 -4.29983 -1.74008 4.66741 170.277 -14.0335 1.00946 -1.61233 -1.6535 10.6367 2.09159 90 7.95139e-016 4.77083e-015 -28.8949 -1.36392 170.363 -61.0049 -0.0371163 0.0776187 -1.7561 4.45981 0.398174 90 0 -0 
-13.2797 88.6516 79.9803 -92.0642 -5.64892 -174.799 0.987062 -0.0517353 -0.442197 1.97369 -0.110596 -0.883298 1.97369 -0.11061 -0.883306 -16.1448 -2.27599 -12.9154 42.8478 -1.09376 12.3656 -166.346 -4.13985 -95.9097 -29.4745 1.40048 83.1434 -32.7972 4.03717 -20.0605 65.7509 -88.5871 68.4255 -166.432 -7.34059 72.9282 -7.72071 -4.73353 -83.5191 -24.103 -2.70925 14.5679 3.87943 83.2894 -3.66315 0.18586 4.43561 170.135 -13.4374 1.02499 -1.55586 -1.2011 11.5916 2.1227 90 2.38542e-015 7.95139e-016 -31.259 -0.814571 170.809 -53.7476 -0.0896426 0.235261 -1.81281 6.45273 0.894906 90 5.96354e-016 1.59028e-015 
-10.3917 88.7059 80.0708 -92.3802 -6.74955 -174.694 0.889018 -0.450909 -0.468366 1.77443 -0.908538 -0.929556 1.77441 -0.908553 -0.929565 -16.2389 -2.09973 -13.0318 42.8354 -0.804 12.2929 -166.192 -3.94545 -96.1439 -30.5909 1.253 81.8567 -34.1854 4.34303 -20.7643 102.924 -88.7467 105.579 -166.343 -7.19881 72.7931 -7.52278 -5.31257 -84.1501 -23.2711 -2.52907 14.1071 3.46593 82.5827 -3.23505 3.12254 3.52375 170.152 -10.5853 1.02456 -1.59176 -1.77001 11.4833 2.12753 90 1.59028e-015 7.95139e-016 -32.5212 -0.355689 171.108 -44.506 -0.174381 0.469781 -3.18791 6.41611 1.18972 90 -5.96354e-016 7.95139e-016 
-7.32405 88.6562 80.0179 -92.4711 -7.0609 -173.706 0.867149 -0.680325 -0.676862 1.72813 -1.37028 -1.34332 1.72813 -1.3703 -1.34332 -16.4839 -1.99013 -12.7145 42.7602 -0.899678 11.8113 -165.859 -3.72433 -95.8658 -31.1987 0.717155 80.6899 -34.5703 4.43381 -20.9626 109.586 -88.6981 112.215 -166.059 -7.02273 73.0666 -7.07656 -5.7131 -84.6671 -22.4551 -2.364 13.6663 3.11859 81.7917 -2.88574 6.88542 3.95427 169.216 -7.56634 1.0432 -1.56015 -2.15682 12.1095 2.16139 90 0 -3.97569e-016 -32.8777 0.904934 170.826 -34.8687 -0.179452 0.720904 -7.85487 5.59476 1.85745 90 -1.11816e-015 -3.97569e-016 
-4.1586 88.684 80.1146 -92.3483 -8.33199 -173.404 0.866982 -1.0325 -0.741289 1.72096 -2.07552 -1.46708 1.72094 -2.07553 -1.46708 -16.4037 -1.97137 -12.7004 42.3985 -0.903471 11.7847 -165.884 -3.63749 -95.8536 -31.7088 0.53934 79.7326 -34.4264 4.39983 -20.8758 107.192 -88.6561 109.793 -166.136 -6.92536 73.0459 -6.65136 -6.34216 -85.1178 -21.9057 -2.25716 13.3624 3.07002 81.6595 -2.83737 8.9813 1.59756 169.557 -6.77172 1.0549 -1.61559 -2.43644 11.5635 2.2279 90 3.18055e-015 1.59028e-015 -32.2965 2.11308 171.008 -27.123 -0.170069 0.945081 -9.5575 5.89597 2.34794 90 9.93923e-017 -1.98785e-016 
